<?xml version="1.0" encoding="UTF-8" standalone="no"?>
<svg
   xmlns:dc="http://purl.org/dc/elements/1.1/"
   xmlns:cc="http://creativecommons.org/ns#"
   xmlns:rdf="http://www.w3.org/1999/02/22-rdf-syntax-ns#"
   xmlns:svg="http://www.w3.org/2000/svg"
   xmlns="http://www.w3.org/2000/svg"
   xmlns:sodipodi="http://sodipodi.sourceforge.net/DTD/sodipodi-0.dtd"
   xmlns:inkscape="http://www.inkscape.org/namespaces/inkscape"
   id="theChip"
   width="255.78799"
   height="255.784"
   viewBox="0 0 255.78799 255.784"
   version="1.1"
   sodipodi:docname="chip.svg"
   inkscape:version="0.92.0 r">
  <metadata
     id="metadata76">
    <rdf:RDF>
      <cc:Work
         rdf:about="">
        <dc:format>image/svg+xml</dc:format>
        <dc:type
           rdf:resource="http://purl.org/dc/dcmitype/StillImage" />
        <dc:title>Chip Icon</dc:title>
      </cc:Work>
    </rdf:RDF>
  </metadata>
  <defs
     id="defs74" />
  <sodipodi:namedview
     pagecolor="#ffffff"
     bordercolor="#666666"
     borderopacity="1"
     objecttolerance="10"
     gridtolerance="10"
     guidetolerance="10"
     inkscape:pageopacity="0"
     inkscape:pageshadow="2"
     inkscape:window-width="1049"
     inkscape:window-height="736"
     id="namedview72"
     showgrid="false"
     inkscape:pagecheckerboard="false"
     fit-margin-top="0"
     fit-margin-left="0"
     fit-margin-right="0"
     fit-margin-bottom="0"
     inkscape:zoom="1.5015873"
     inkscape:cx="227.73544"
     inkscape:cy="153.50323"
     inkscape:window-x="184"
     inkscape:window-y="25"
     inkscape:window-maximized="0"
     inkscape:current-layer="theChip" />
  <title
     id="title63">Chip Icon</title>
  <g
     id="g69"
     transform="translate(-205.217,-59.215)"
     style="fill:none;fill-rule:evenodd">
    <path
       d="m 254.107,108 h 158 v 158 h -158 z"
       id="path65"
       inkscape:connector-curvature="0"
       style="fill:#ffffff" />
    <path
       d="m 281.406,158.072 c 0,12.524 10.157,22.675 22.68,22.675 3.4,0 6.598,-0.798 9.492,-2.14 11.35,7.875 32.912,16.388 73.25,16.388 h 25.23 v 71.063 H 254.156 V 108.156 h 157.902 v 71.064 h -25.23 c -34.64,0 -52.777,-6.58 -61.96,-12.11 a 22.574,22.574 0 0 0 1.9,-9.038 c 0,-12.53 -10.157,-22.68 -22.68,-22.68 -12.525,0 -22.682,10.15 -22.682,22.68 z m 171.703,-16.797 a 7.89,7.89 0 0 0 0,-15.78 h -25.272 v -25.23 a 7.89,7.89 0 0 0 -7.89,-7.89 h -25.23 v -25.27 a 7.89,7.89 0 0 0 -15.78,0 v 25.27 H 341 v -25.27 a 7.89,7.89 0 0 0 -15.78,0 v 25.27 h -37.943 v -25.27 a 7.89,7.89 0 0 0 -15.78,0 v 25.27 h -25.23 c -4.35,0 -7.884,3.534 -7.884,7.89 v 25.23 h -25.276 a 7.89,7.89 0 0 0 0,15.78 h 25.277 v 37.945 h -25.276 a 7.89,7.89 0 0 0 -7.89,7.89 c 0,4.352 3.533,7.885 7.89,7.885 h 25.277 v 37.944 h -25.276 a 7.89,7.89 0 0 0 0,15.78 h 25.277 v 25.228 c 0,4.358 3.534,7.89 7.886,7.89 h 25.23 v 25.272 a 7.89,7.89 0 0 0 15.78,0 v -25.272 h 37.943 v 25.272 a 7.89,7.89 0 0 0 15.78,0 v -25.272 h 37.94 v 25.272 a 7.89,7.89 0 0 0 15.78,0 v -25.272 h 25.228 a 7.89,7.89 0 0 0 7.89,-7.89 V 248.72 h 25.27 a 7.89,7.89 0 0 0 0,-15.78 h -25.27 v -37.945 h 25.27 c 4.36,0 7.892,-3.533 7.892,-7.885 a 7.89,7.89 0 0 0 -7.89,-7.89 h -25.272 v -37.945 h 25.27 z"
       id="path67"
       inkscape:connector-curvature="0"
       style="fill:#000000" />
  </g>
</svg>
